<?xml version="1.0" encoding="UTF-8" standalone="no"?>
<!DOCTYPE svg PUBLIC "-//W3C//DTD SVG 1.1//EN"
 "http://www.w3.org/Graphics/SVG/1.1/DTD/svg11.dtd">
<!-- Generated by graphviz version 2.43.0 (0)
 -->
<!-- Title: %3 Pages: 1 -->
<svg width="545pt" height="811pt"
 viewBox="0.00 0.00 545.40 811.29" xmlns="http://www.w3.org/2000/svg" xmlns:xlink="http://www.w3.org/1999/xlink">
<g id="graph0" class="graph" transform="scale(1 1) rotate(0) translate(4 807.29)">
<title>%3</title>
<polygon fill="white" stroke="transparent" points="-4,4 -4,-807.29 541.4,-807.29 541.4,4 -4,4"/>
<!-- 1 -->
<g id="node1" class="node">
<title>1</title>
<ellipse fill="none" stroke="black" cx="268.7" cy="-755.21" rx="173.48" ry="48.17"/>
<text text-anchor="middle" x="268.7" y="-774.01" font-family="Times,serif" font-size="14.00">1. Generous Matching</text>
<text text-anchor="middle" x="268.7" y="-759.01" font-family="Times,serif" font-size="14.00">Accept all cluster matches with:</text>
<text text-anchor="middle" x="268.7" y="-744.01" font-family="Times,serif" font-size="14.00">dz ≤ 0.06</text>
<text text-anchor="middle" x="268.7" y="-729.01" font-family="Times,serif" font-size="14.00">dθ ≤ 0.31°</text>
</g>
<!-- 2 -->
<g id="node2" class="node">
<title>2</title>
<ellipse fill="none" stroke="black" cx="268.7" cy="-653.13" rx="143.77" ry="18"/>
<text text-anchor="middle" x="268.7" y="-649.43" font-family="Times,serif" font-size="14.00">2. Sort by overall separation</text>
</g>
<!-- 1&#45;&gt;2 -->
<g id="edge1" class="edge">
<title>1&#45;&gt;2</title>
<path fill="none" stroke="black" d="M268.7,-707.1C268.7,-698.32 268.7,-689.41 268.7,-681.47"/>
<polygon fill="black" stroke="black" points="272.2,-681.35 268.7,-671.35 265.2,-681.35 272.2,-681.35"/>
</g>
<!-- 3 -->
<g id="node3" class="node">
<title>3</title>
<ellipse fill="none" stroke="black" cx="268.7" cy="-561.65" rx="218.49" ry="37.45"/>
<text text-anchor="middle" x="268.7" y="-572.95" font-family="Times,serif" font-size="14.00">3. Add columns for dθ &amp; dz</text>
<text text-anchor="middle" x="268.7" y="-557.95" font-family="Times,serif" font-size="14.00">&#45; dθ = sqrt((RA₁ &#45; RA₂)² + (DEC₁ &#45; DEC₂)²)</text>
<text text-anchor="middle" x="268.7" y="-542.95" font-family="Times,serif" font-size="14.00">&#45; dz = |z₁ &#45; z₂|</text>
</g>
<!-- 2&#45;&gt;3 -->
<g id="edge2" class="edge">
<title>2&#45;&gt;3</title>
<path fill="none" stroke="black" d="M268.7,-634.87C268.7,-627.57 268.7,-618.67 268.7,-609.64"/>
<polygon fill="black" stroke="black" points="272.2,-609.48 268.7,-599.48 265.2,-609.48 272.2,-609.48"/>
</g>
<!-- 4 -->
<g id="node4" class="node">
<title>4</title>
<ellipse fill="none" stroke="black" cx="268.7" cy="-450.7" rx="268.9" ry="37.45"/>
<text text-anchor="middle" x="268.7" y="-462" font-family="Times,serif" font-size="14.00">4. Apply row&#45;wise cuts on dθ and dz</text>
<text text-anchor="middle" x="268.7" y="-447" font-family="Times,serif" font-size="14.00">Use threshold for either source or matched cluster</text>
<text text-anchor="middle" x="268.7" y="-432" font-family="Times,serif" font-size="14.00">&#45; Use 1750 kpc max dθ</text>
</g>
<!-- 3&#45;&gt;4 -->
<g id="edge3" class="edge">
<title>3&#45;&gt;4</title>
<path fill="none" stroke="black" d="M268.7,-524.07C268.7,-515.89 268.7,-507.11 268.7,-498.59"/>
<polygon fill="black" stroke="black" points="272.2,-498.37 268.7,-488.37 265.2,-498.37 272.2,-498.37"/>
</g>
<!-- 5 -->
<g id="node5" class="node">
<title>5</title>
<ellipse fill="none" stroke="black" cx="268.7" cy="-350.35" rx="164.51" ry="26.74"/>
<text text-anchor="middle" x="268.7" y="-354.15" font-family="Times,serif" font-size="14.00">5. Remove duplicated clusters</text>
<text text-anchor="middle" x="268.7" y="-339.15" font-family="Times,serif" font-size="14.00">from _targeted catalogue_</text>
</g>
<!-- 4&#45;&gt;5 -->
<g id="edge4" class="edge">
<title>4&#45;&gt;5</title>
<path fill="none" stroke="black" d="M268.7,-413.08C268.7,-404.71 268.7,-395.81 268.7,-387.46"/>
<polygon fill="black" stroke="black" points="272.2,-387.26 268.7,-377.26 265.2,-387.26 272.2,-387.26"/>
</g>
<!-- 6 -->
<g id="node6" class="node">
<title>6</title>
<ellipse fill="none" stroke="black" cx="268.7" cy="-269.48" rx="181.17" ry="18"/>
<text text-anchor="middle" x="268.7" y="-265.78" font-family="Times,serif" font-size="14.00">6. Remove duplicated origin clusters</text>
</g>
<!-- 5&#45;&gt;6 -->
<g id="edge5" class="edge">
<title>5&#45;&gt;6</title>
<path fill="none" stroke="black" d="M268.7,-323.09C268.7,-314.99 268.7,-306.05 268.7,-297.87"/>
<polygon fill="black" stroke="black" points="272.2,-297.7 268.7,-287.7 265.2,-297.7 272.2,-297.7"/>
</g>
<!-- 7 -->
<g id="node7" class="node">
<title>7</title>
<ellipse fill="none" stroke="black" cx="268.7" cy="-188.61" rx="264.42" ry="26.74"/>
<text text-anchor="middle" x="268.7" y="-192.41" font-family="Times,serif" font-size="14.00">7. Apply volume cuts on source catalogue clusters</text>
<text text-anchor="middle" x="268.7" y="-177.41" font-family="Times,serif" font-size="14.00">Criteria can be met by either source or cluster</text>
</g>
<!-- 6&#45;&gt;7 -->
<g id="edge6" class="edge">
<title>6&#45;&gt;7</title>
<path fill="none" stroke="black" d="M268.7,-251.37C268.7,-243.88 268.7,-234.79 268.7,-225.91"/>
<polygon fill="black" stroke="black" points="272.2,-225.69 268.7,-215.69 265.2,-225.69 272.2,-225.69"/>
</g>
<!-- 8 -->
<g id="node8" class="node">
<title>8</title>
<ellipse fill="none" stroke="black" cx="268.7" cy="-107.74" rx="195.77" ry="18"/>
<text text-anchor="middle" x="268.7" y="-104.04" font-family="Times,serif" font-size="14.00">8. Filter by L_cut (10) and λ_cut (39.55)</text>
</g>
<!-- 7&#45;&gt;8 -->
<g id="edge7" class="edge">
<title>7&#45;&gt;8</title>
<path fill="none" stroke="black" d="M268.7,-161.35C268.7,-153.25 268.7,-144.31 268.7,-136.13"/>
<polygon fill="black" stroke="black" points="272.2,-135.96 268.7,-125.96 265.2,-135.96 272.2,-135.96"/>
</g>
<!-- 9 -->
<g id="node9" class="node">
<title>9</title>
<ellipse fill="none" stroke="black" cx="268.7" cy="-26.87" rx="198.89" ry="26.74"/>
<text text-anchor="middle" x="268.7" y="-30.67" font-family="Times,serif" font-size="14.00">9. Check results by matching back to</text>
<text text-anchor="middle" x="268.7" y="-15.67" font-family="Times,serif" font-size="14.00">volume limited set of full catalogue</text>
</g>
<!-- 8&#45;&gt;9 -->
<g id="edge8" class="edge">
<title>8&#45;&gt;9</title>
<path fill="none" stroke="black" d="M268.7,-89.63C268.7,-82.14 268.7,-73.05 268.7,-64.17"/>
<polygon fill="black" stroke="black" points="272.2,-63.95 268.7,-53.95 265.2,-63.95 272.2,-63.95"/>
</g>
</g>
</svg>
