<?xml version="1.0" encoding="UTF-8" standalone="no"?>
<!DOCTYPE svg PUBLIC "-//W3C//DTD SVG 1.1//EN"
 "http://www.w3.org/Graphics/SVG/1.1/DTD/svg11.dtd">
<!-- Generated by graphviz version 2.43.0 (0)
 -->
<!-- Title: %3 Pages: 1 -->
<svg width="575pt" height="432pt"
 viewBox="0.00 0.00 574.84 432.00" xmlns="http://www.w3.org/2000/svg" xmlns:xlink="http://www.w3.org/1999/xlink">
<g id="graph0" class="graph" transform="scale(0.53 0.53) rotate(0) translate(4 807.29)">
<title>%3</title>
<polygon fill="white" stroke="transparent" points="-4,4 -4,-807.29 1075.55,-807.29 1075.55,4 -4,4"/>
<!-- 1 -->
<g id="node1" class="node">
<title>1</title>
<ellipse fill="none" stroke="black" cx="535.78" cy="-755" rx="167.67" ry="48.17"/>
<text text-anchor="middle" x="535.78" y="-773.8" font-family="Helvetica,sans-Serif" font-size="14.00">1. Generous Matching</text>
<text text-anchor="middle" x="535.78" y="-758.8" font-family="Helvetica,sans-Serif" font-size="14.00">Accept all cluster matches with:</text>
<text text-anchor="middle" x="535.78" y="-743.8" font-family="Helvetica,sans-Serif" font-size="14.00">dz ≤ 0.06</text>
<text text-anchor="middle" x="535.78" y="-728.8" font-family="Helvetica,sans-Serif" font-size="14.00">dθ ≤ 0.31°</text>
</g>
<!-- 2 -->
<g id="node2" class="node">
<title>2</title>
<ellipse fill="none" stroke="black" cx="535.78" cy="-653" rx="139.18" ry="18"/>
<text text-anchor="middle" x="535.78" y="-649.3" font-family="Helvetica,sans-Serif" font-size="14.00">2. Sort by overall separation</text>
</g>
<!-- 1&#45;&gt;2 -->
<g id="edge1" class="edge">
<title>1&#45;&gt;2</title>
<path fill="none" stroke="black" d="M535.78,-706.64C535.78,-697.89 535.78,-689.04 535.78,-681.15"/>
<polygon fill="black" stroke="black" points="539.28,-681.09 535.78,-671.09 532.28,-681.09 539.28,-681.09"/>
</g>
<!-- 3 -->
<g id="node3" class="node">
<title>3</title>
<ellipse fill="none" stroke="black" cx="535.78" cy="-562" rx="245.23" ry="37.45"/>
<text text-anchor="middle" x="535.78" y="-573.3" font-family="Helvetica,sans-Serif" font-size="14.00">3. Add columns for dθ &amp; dz</text>
<text text-anchor="middle" x="535.78" y="-558.3" font-family="Helvetica,sans-Serif" font-size="14.00">&#45; dθ = sqrt((RA1 &#45; RA2)^2 + (DEC1 &#45; DEC2)^2)</text>
<text text-anchor="middle" x="535.78" y="-543.3" font-family="Helvetica,sans-Serif" font-size="14.00">&#45; dz = |z1 &#45; z2|</text>
</g>
<!-- 2&#45;&gt;3 -->
<g id="edge2" class="edge">
<title>2&#45;&gt;3</title>
<path fill="none" stroke="black" d="M535.78,-634.84C535.78,-627.57 535.78,-618.72 535.78,-609.74"/>
<polygon fill="black" stroke="black" points="539.28,-609.63 535.78,-599.63 532.28,-609.63 539.28,-609.63"/>
</g>
<!-- 4 -->
<g id="node4" class="node">
<title>4</title>
<ellipse fill="none" stroke="black" cx="535.78" cy="-451" rx="260.43" ry="37.45"/>
<text text-anchor="middle" x="535.78" y="-462.3" font-family="Helvetica,sans-Serif" font-size="14.00">4. Apply row&#45;wise cuts on dθ and dz</text>
<text text-anchor="middle" x="535.78" y="-447.3" font-family="Helvetica,sans-Serif" font-size="14.00">Use threshold for either source or matched cluster</text>
<text text-anchor="middle" x="535.78" y="-432.3" font-family="Helvetica,sans-Serif" font-size="14.00">&#45; Use 1750 kpc max dθ</text>
</g>
<!-- 3&#45;&gt;4 -->
<g id="edge3" class="edge">
<title>3&#45;&gt;4</title>
<path fill="none" stroke="black" d="M535.78,-524.4C535.78,-516.22 535.78,-507.44 535.78,-498.91"/>
<polygon fill="black" stroke="black" points="539.28,-498.69 535.78,-488.69 532.28,-498.69 539.28,-498.69"/>
</g>
<!-- 5 -->
<g id="node5" class="node">
<title>5</title>
<ellipse fill="none" stroke="black" cx="535.78" cy="-350" rx="160.53" ry="26.74"/>
<text text-anchor="middle" x="535.78" y="-353.8" font-family="Helvetica,sans-Serif" font-size="14.00">5. Remove duplicated clusters</text>
<text text-anchor="middle" x="535.78" y="-338.8" font-family="Helvetica,sans-Serif" font-size="14.00">from targeted catalogue</text>
</g>
<!-- 4&#45;&gt;5 -->
<g id="edge4" class="edge">
<title>4&#45;&gt;5</title>
<path fill="none" stroke="black" d="M535.78,-413.42C535.78,-404.8 535.78,-395.63 535.78,-387.04"/>
<polygon fill="black" stroke="black" points="539.28,-386.92 535.78,-376.92 532.28,-386.92 539.28,-386.92"/>
</g>
<!-- 6 -->
<g id="node6" class="node">
<title>6</title>
<ellipse fill="none" stroke="black" cx="535.78" cy="-269" rx="176.27" ry="18"/>
<text text-anchor="middle" x="535.78" y="-265.3" font-family="Helvetica,sans-Serif" font-size="14.00">6. Remove duplicated origin clusters</text>
</g>
<!-- 5&#45;&gt;6 -->
<g id="edge5" class="edge">
<title>5&#45;&gt;6</title>
<path fill="none" stroke="black" d="M535.78,-322.69C535.78,-314.58 535.78,-305.63 535.78,-297.44"/>
<polygon fill="black" stroke="black" points="539.28,-297.25 535.78,-287.25 532.28,-297.25 539.28,-297.25"/>
</g>
<!-- 7 -->
<g id="node7" class="node">
<title>7</title>
<ellipse fill="none" stroke="black" cx="535.78" cy="-189" rx="259.52" ry="26.74"/>
<text text-anchor="middle" x="535.78" y="-192.8" font-family="Helvetica,sans-Serif" font-size="14.00">7. Apply volume cuts on source catalogue clusters</text>
<text text-anchor="middle" x="535.78" y="-177.8" font-family="Helvetica,sans-Serif" font-size="14.00">Criteria can be met by either source or cluster</text>
</g>
<!-- 6&#45;&gt;7 -->
<g id="edge6" class="edge">
<title>6&#45;&gt;7</title>
<path fill="none" stroke="black" d="M535.78,-250.69C535.78,-243.48 535.78,-234.82 535.78,-226.32"/>
<polygon fill="black" stroke="black" points="539.28,-226.16 535.78,-216.16 532.28,-226.16 539.28,-226.16"/>
</g>
<!-- 8 -->
<g id="node8" class="node">
<title>8</title>
<ellipse fill="none" stroke="black" cx="535.78" cy="-108" rx="189.27" ry="18"/>
<text text-anchor="middle" x="535.78" y="-104.3" font-family="Helvetica,sans-Serif" font-size="14.00">8. Filter by L_cut (10) and λ_cut (39.55)</text>
</g>
<!-- 7&#45;&gt;8 -->
<g id="edge7" class="edge">
<title>7&#45;&gt;8</title>
<path fill="none" stroke="black" d="M535.78,-161.69C535.78,-153.58 535.78,-144.63 535.78,-136.44"/>
<polygon fill="black" stroke="black" points="539.28,-136.25 535.78,-126.25 532.28,-136.25 539.28,-136.25"/>
</g>
<!-- 9 -->
<g id="node9" class="node">
<title>9</title>
<ellipse fill="none" stroke="black" cx="535.78" cy="-27" rx="194.41" ry="26.74"/>
<text text-anchor="middle" x="535.78" y="-30.8" font-family="Helvetica,sans-Serif" font-size="14.00">9. Check results by matching back to</text>
<text text-anchor="middle" x="535.78" y="-15.8" font-family="Helvetica,sans-Serif" font-size="14.00">volume limited set of full catalogue</text>
</g>
<!-- 8&#45;&gt;9 -->
<g id="edge8" class="edge">
<title>8&#45;&gt;9</title>
<path fill="none" stroke="black" d="M535.78,-89.86C535.78,-82.36 535.78,-73.25 535.78,-64.36"/>
<polygon fill="black" stroke="black" points="539.28,-64.13 535.78,-54.13 532.28,-64.13 539.28,-64.13"/>
</g>
</g>
</svg>
