<?xml version="1.0" encoding="UTF-8" standalone="no"?>
<!DOCTYPE svg PUBLIC "-//W3C//DTD SVG 1.1//EN"
 "http://www.w3.org/Graphics/SVG/1.1/DTD/svg11.dtd">
<!-- Generated by graphviz version 2.43.0 (0)
 -->
<!-- Title: %3 Pages: 1 -->
<svg width="528pt" height="811pt"
 viewBox="0.00 0.00 528.43 811.29" xmlns="http://www.w3.org/2000/svg" xmlns:xlink="http://www.w3.org/1999/xlink">
<g id="graph0" class="graph" transform="scale(1 1) rotate(0) translate(4 807.29)">
<title>%3</title>
<polygon fill="white" stroke="transparent" points="-4,4 -4,-807.29 524.43,-807.29 524.43,4 -4,4"/>
<!-- 1 -->
<g id="node1" class="node">
<title>1</title>
<ellipse fill="none" stroke="black" cx="260.22" cy="-755.21" rx="167.67" ry="48.17"/>
<text text-anchor="middle" x="260.22" y="-774.01" font-family="Helvetica,sans-Serif" font-size="14.00">1. Generous Matching</text>
<text text-anchor="middle" x="260.22" y="-759.01" font-family="Helvetica,sans-Serif" font-size="14.00">Accept all cluster matches with:</text>
<text text-anchor="middle" x="260.22" y="-744.01" font-family="Helvetica,sans-Serif" font-size="14.00">dz ≤ 0.06</text>
<text text-anchor="middle" x="260.22" y="-729.01" font-family="Helvetica,sans-Serif" font-size="14.00">dθ ≤ 0.31°</text>
</g>
<!-- 2 -->
<g id="node2" class="node">
<title>2</title>
<ellipse fill="none" stroke="black" cx="260.22" cy="-653.13" rx="139.18" ry="18"/>
<text text-anchor="middle" x="260.22" y="-649.43" font-family="Helvetica,sans-Serif" font-size="14.00">2. Sort by overall separation</text>
</g>
<!-- 1&#45;&gt;2 -->
<g id="edge1" class="edge">
<title>1&#45;&gt;2</title>
<path fill="none" stroke="black" d="M260.22,-707.1C260.22,-698.32 260.22,-689.41 260.22,-681.47"/>
<polygon fill="black" stroke="black" points="263.72,-681.35 260.22,-671.35 256.72,-681.35 263.72,-681.35"/>
</g>
<!-- 3 -->
<g id="node3" class="node">
<title>3</title>
<ellipse fill="none" stroke="black" cx="260.22" cy="-561.65" rx="245.23" ry="37.45"/>
<text text-anchor="middle" x="260.22" y="-572.95" font-family="Helvetica,sans-Serif" font-size="14.00">3. Add columns for dθ &amp; dz</text>
<text text-anchor="middle" x="260.22" y="-557.95" font-family="Helvetica,sans-Serif" font-size="14.00">&#45; dθ = sqrt((RA1 &#45; RA2)^2 + (DEC1 &#45; DEC2)^2)</text>
<text text-anchor="middle" x="260.22" y="-542.95" font-family="Helvetica,sans-Serif" font-size="14.00">&#45; dz = |z1 &#45; z2|</text>
</g>
<!-- 2&#45;&gt;3 -->
<g id="edge2" class="edge">
<title>2&#45;&gt;3</title>
<path fill="none" stroke="black" d="M260.22,-634.87C260.22,-627.57 260.22,-618.67 260.22,-609.64"/>
<polygon fill="black" stroke="black" points="263.72,-609.48 260.22,-599.48 256.72,-609.48 263.72,-609.48"/>
</g>
<!-- 4 -->
<g id="node4" class="node">
<title>4</title>
<ellipse fill="none" stroke="black" cx="260.22" cy="-450.7" rx="260.43" ry="37.45"/>
<text text-anchor="middle" x="260.22" y="-462" font-family="Helvetica,sans-Serif" font-size="14.00">4. Apply row&#45;wise cuts on dθ and dz</text>
<text text-anchor="middle" x="260.22" y="-447" font-family="Helvetica,sans-Serif" font-size="14.00">Use threshold for either source or matched cluster</text>
<text text-anchor="middle" x="260.22" y="-432" font-family="Helvetica,sans-Serif" font-size="14.00">&#45; Use 1750 kpc max dθ</text>
</g>
<!-- 3&#45;&gt;4 -->
<g id="edge3" class="edge">
<title>3&#45;&gt;4</title>
<path fill="none" stroke="black" d="M260.22,-524.07C260.22,-515.89 260.22,-507.11 260.22,-498.59"/>
<polygon fill="black" stroke="black" points="263.72,-498.37 260.22,-488.37 256.72,-498.37 263.72,-498.37"/>
</g>
<!-- 5 -->
<g id="node5" class="node">
<title>5</title>
<ellipse fill="none" stroke="black" cx="260.22" cy="-350.35" rx="160.53" ry="26.74"/>
<text text-anchor="middle" x="260.22" y="-354.15" font-family="Helvetica,sans-Serif" font-size="14.00">5. Remove duplicated clusters</text>
<text text-anchor="middle" x="260.22" y="-339.15" font-family="Helvetica,sans-Serif" font-size="14.00">from targeted catalogue</text>
</g>
<!-- 4&#45;&gt;5 -->
<g id="edge4" class="edge">
<title>4&#45;&gt;5</title>
<path fill="none" stroke="black" d="M260.22,-413.08C260.22,-404.71 260.22,-395.81 260.22,-387.46"/>
<polygon fill="black" stroke="black" points="263.72,-387.26 260.22,-377.26 256.72,-387.26 263.72,-387.26"/>
</g>
<!-- 6 -->
<g id="node6" class="node">
<title>6</title>
<ellipse fill="none" stroke="black" cx="260.22" cy="-269.48" rx="176.27" ry="18"/>
<text text-anchor="middle" x="260.22" y="-265.78" font-family="Helvetica,sans-Serif" font-size="14.00">6. Remove duplicated origin clusters</text>
</g>
<!-- 5&#45;&gt;6 -->
<g id="edge5" class="edge">
<title>5&#45;&gt;6</title>
<path fill="none" stroke="black" d="M260.22,-323.09C260.22,-314.99 260.22,-306.05 260.22,-297.87"/>
<polygon fill="black" stroke="black" points="263.72,-297.7 260.22,-287.7 256.72,-297.7 263.72,-297.7"/>
</g>
<!-- 7 -->
<g id="node7" class="node">
<title>7</title>
<ellipse fill="none" stroke="black" cx="260.22" cy="-188.61" rx="259.52" ry="26.74"/>
<text text-anchor="middle" x="260.22" y="-192.41" font-family="Helvetica,sans-Serif" font-size="14.00">7. Apply volume cuts on source catalogue clusters</text>
<text text-anchor="middle" x="260.22" y="-177.41" font-family="Helvetica,sans-Serif" font-size="14.00">Criteria can be met by either source or cluster</text>
</g>
<!-- 6&#45;&gt;7 -->
<g id="edge6" class="edge">
<title>6&#45;&gt;7</title>
<path fill="none" stroke="black" d="M260.22,-251.37C260.22,-243.88 260.22,-234.79 260.22,-225.91"/>
<polygon fill="black" stroke="black" points="263.72,-225.69 260.22,-215.69 256.72,-225.69 263.72,-225.69"/>
</g>
<!-- 8 -->
<g id="node8" class="node">
<title>8</title>
<ellipse fill="none" stroke="black" cx="260.22" cy="-107.74" rx="189.27" ry="18"/>
<text text-anchor="middle" x="260.22" y="-104.04" font-family="Helvetica,sans-Serif" font-size="14.00">8. Filter by L_cut (10) and λ_cut (39.55)</text>
</g>
<!-- 7&#45;&gt;8 -->
<g id="edge7" class="edge">
<title>7&#45;&gt;8</title>
<path fill="none" stroke="black" d="M260.22,-161.35C260.22,-153.25 260.22,-144.31 260.22,-136.13"/>
<polygon fill="black" stroke="black" points="263.72,-135.96 260.22,-125.96 256.72,-135.96 263.72,-135.96"/>
</g>
<!-- 9 -->
<g id="node9" class="node">
<title>9</title>
<ellipse fill="none" stroke="black" cx="260.22" cy="-26.87" rx="194.41" ry="26.74"/>
<text text-anchor="middle" x="260.22" y="-30.67" font-family="Helvetica,sans-Serif" font-size="14.00">9. Check results by matching back to</text>
<text text-anchor="middle" x="260.22" y="-15.67" font-family="Helvetica,sans-Serif" font-size="14.00">volume limited set of full catalogue</text>
</g>
<!-- 8&#45;&gt;9 -->
<g id="edge8" class="edge">
<title>8&#45;&gt;9</title>
<path fill="none" stroke="black" d="M260.22,-89.63C260.22,-82.14 260.22,-73.05 260.22,-64.17"/>
<polygon fill="black" stroke="black" points="263.72,-63.95 260.22,-53.95 256.72,-63.95 263.72,-63.95"/>
</g>
</g>
</svg>
